<svg xmlns="http://www.w3.org/2000/svg" viewBox="0 0 410.25 410.25">
  <circle fill="#cc499c" r="205.13" cx="205.13" cy="205.13"/>
  <path fill="#fff" d="M164.72 274.28c2.99 11.06 2.66 21.37-.43 30.7a50.6 50.6 0 0 1-2.46 6.08 57.36 57.36 0 0 1-9.49 13.84c-11.93 13.02-28.6 17.94-35.76 13.8-7.72-4.48-3.85-22.84 9.99-37.47 14.88-15.74 36.3-25.86 36.3-25.86.43-.4 1.34-.8 1.85-1.09zm42.63-214.07c-34.07 12.1-70.96 31.1-97.49 55.91-31.53 29.5-36.56 55.17-34.49 65.9 7.31 37.86 59.18 62.6 80.5 80.96v.1c-6.29 3.1-52.3 26.4-63.07 50.2-11.36 25.12 1.8 43.14 10.53 45.57 27.02 7.51 54.74-6 69.64-28.23 14.38-21.45 13.18-49.15 6.94-62.92 8.62-2.28 18.66-3.3 31.44-1.8 36.03 4.2 43.1 26.7 41.75 36.12-1.35 9.42-8.9 14.6-11.44 16.16-2.52 1.56-3.3 2.1-3.08 3.27.3 1.69 1.47 1.62 3.63 1.26 2.97-.5 18.92-7.66 19.6-25.04.87-22.07-20.28-46.76-57.73-46.12-15.42.27-25.12 1.74-32.12 4.34a71.87 71.87 0 0 0-1.6-1.76c-23.14-24.7-65.94-42.17-64.13-75.38.66-12.07 4.86-43.86 82.24-82.42 63.4-31.58 114.14-22.9 122.9-3.63 12.53 27.52-27.11 78.68-92.94 86.05-25.09 2.82-38.3-6.9-41.58-10.53-3.46-3.8-3.97-3.98-5.26-3.26-2.1 1.16-.77 4.53 0 6.53 1.96 5.12 10.03 14.19 23.78 18.7 12.1 3.97 41.54 6.15 77.16-7.62 39.88-15.43 71.03-58.35 61.88-94.23-9.3-36.48-69.8-48.48-127.06-28.13z"/>
</svg>