<svg viewBox="0 0 1713 1713" xmlns="http://www.w3.org/2000/svg" fill-rule="evenodd" clip-rule="evenodd" stroke-linejoin="round" stroke-miterlimit="2"><path d="M855.984.538c472.746 0 855.98 383.241 855.98 855.984 0 472.746-383.234 855.98-855.98 855.98C383.238 1712.501 0 1329.267 0 856.521 0 383.779 383.238.538 855.984.538z" fill="#cd6699"/><path d="M685.871 1141.65c12.455 46.068 11.088 89.026-1.775 127.93a210.818 210.818 0 01-10.254 25.325c-9.92 20.584-23.233 39.85-39.537 57.634-49.734 54.258-119.221 74.775-149.017 57.487-32.175-18.65-16.058-95.15 41.604-156.1 62.033-65.58 151.288-107.742 151.288-107.742l-.138-.266a884.274 884.274 0 007.83-4.267zm707.043-774.737C1354.15 214.888 1102.076 164.908 863.5 249.667c-141.98 50.442-295.684 129.608-406.2 232.98C325.895 605.554 304.94 712.53 313.574 757.23c30.467 157.725 246.584 260.82 335.426 337.313v.462c-26.196 12.896-217.934 109.93-262.805 209.13-47.346 104.654 7.533 179.754 43.871 189.862 112.58 31.32 228.104-25.017 290.188-117.62 59.912-89.368 54.925-204.768 28.887-262.172 35.917-9.475 77.788-13.72 131-7.504 150.155 17.537 179.617 111.296 173.984 150.525-5.63 39.242-37.125 60.817-47.654 67.33-10.534 6.516-13.746 8.77-12.859 13.612 1.275 7.041 6.15 6.779 15.13 5.258 12.358-2.083 78.845-31.917 81.687-104.346 3.62-91.958-84.504-194.825-240.542-192.137-64.262 1.108-104.67 7.22-133.858 18.083a299.448 299.448 0 00-6.625-7.325C612.938 954.78 434.609 881.976 442.17 743.613c2.75-50.3 20.234-182.754 342.663-343.417 264.125-131.612 475.567-95.396 512.109-15.129 52.196 114.67-113.005 327.804-387.3 358.546-104.505 11.717-159.53-28.787-173.217-43.87-14.413-15.88-16.559-16.597-21.938-13.617-8.767 4.854-3.212 18.875 0 27.233 8.188 21.312 41.796 59.108 99.092 77.908 50.4 16.542 173.1 25.63 321.488-31.766 166.187-64.288 295.962-243.113 257.846-392.588z" fill="#fff" fill-rule="nonzero"/></svg>